<?xml version="1.0" encoding="UTF-8"?>
<svg id="Layer_1" xmlns="http://www.w3.org/2000/svg" version="1.1" viewBox="0 0 296 298">
  <!-- Generator: Adobe Illustrator 30.1.0, SVG Export Plug-In . SVG Version: 2.1.1 Build 136)  -->
  <defs>
    <style>
      .st0 {
        fill: #8aba95;
      }
    </style>
  </defs>
  <path class="st0" d="M230.93,72.56c-8-.78-16.75-1.53-20.61-1.51-67.65.34-81.04,29-82.92,34.24l43.12-.17.04.06c10.93-.02,20.07,1.51,28.82,5.11,20.52,8.43,36.69,24.4,49.82,28.18,3.3.95,6.64,1.06,9.81.69-1.91-24.7-11.85-48.11-28.07-66.59h-.02,0Z"/>
  <path class="st0" d="M218.28,60.2c-3.23-2.72-6.62-5.26-10.2-7.61-13.5,5.76-18.86,8.8-24.21,11.56,7.87-2.37,20.98-4.18,34.41-3.95Z"/>
  <path class="st0" d="M225.5,139.11c-6.02-6.1-11.9-11.02-17.53-14.96-12.74-3.21-22.55-2.52-25.68,1.16l14.01,24-.02.02c15.93,26.37,14.21,43.51,10.26,84.66-.37,3.82.15,6.88,1.23,9.42,20.55-13.45,36.93-33.59,45.47-58.64.2-.59.37-1.18.56-1.77-3.02-6.58-6.17-13.22-7.87-16.19-4.59-8.02-11.6-18.73-20.44-27.7h0Z"/>
  <path class="st0" d="M198.49,229.76c-.19.65-.41,1.32-.65,2.01-.17.54-.37,1.08-.56,1.64-.11.35-.24.71-.37,1.06-.24.65-.5,1.27-.73,1.92-.52,1.32-1.08,2.67-1.66,4.05-.26.6-.52,1.23-.8,1.85-.69,1.55-1.44,3.15-2.24,4.74-.39.8-.78,1.6-1.21,2.41-.41.8-.84,1.6-1.27,2.41-.34.65-.69,1.25-1.03,1.9,3.36-1.34,6.64-2.87,9.85-4.53,1.4-12.18,1.49-17.85,1.72-23.37-.15.63-.3,1.27-.5,1.94-.17.65-.35,1.29-.56,1.96h0Z"/>
  <path class="st0" d="M170.89,193.74h-.11c-5.5,9.46-11.4,16.62-18.93,22.42-17.57,13.52-39.52,19.49-49.37,28.95-2.05,1.98-3.6,4.29-4.81,6.73,3.43,1.55,6.96,2.95,10.61,4.2,20.98,7.16,42.58,7.83,62.67,3.15,3.94-5.58,7.76-11.1,9.38-13.93,33.7-58.81,15.46-84.75,11.94-88.91l-21.39,37.38h0Z"/>
  <path class="st0" d="M32.05,131.99c-.6,4.05-.95,8.11-1.08,12.14,10.84,8.13,15.95,11.17,20.83,14.29-5.73-5.41-13.41-15.24-19.75-26.43h0Z"/>
  <path class="st0" d="M135.56,216.61c9.18-9.4,13.5-18.24,11.88-22.79l-27.7.11-.02-.02c-30.81.56-44.8-9.49-78.45-33.5-3.58-2.57-6.94-3.62-10.03-3.73,2.05,26.32,13.19,51.16,31.33,70.15,6.92.65,13.78,1.21,17.07,1.23,9.23.04,22.01-.63,34.19-3.79,8.3-2.13,15.5-4.76,21.73-7.65h0Z"/>
  <path class="st0" d="M105.61,129.34l13.26-23.13h-.04c14.98-27.7,30.59-34.77,68.6-52.17,4.68-2.16,7.42-5.04,8.97-8.17-4.61-2.31-9.42-4.35-14.42-6.06-12.2-4.16-24.6-6.12-36.8-6.12-7.89,0-15.72.82-23.33,2.41-4.74,6.64-9.94,14.01-11.92,17.4-4.66,7.98-10.46,19.38-13.84,31.52-2.29,8.26-3.62,15.8-4.25,22.64,3.56,12.65,9.03,20.83,13.78,21.69h0Z"/>
  <path class="st0" d="M115.64,186.93l-21.67-37.19.06-.13c-5.48-9.49-8.71-18.2-9.96-27.62-2.91-21.97,2.91-43.96-.37-57.24-.91-3.71-2.78-6.94-5-9.72-9.38,6.68-17.81,14.83-24.9,24.23-7.07,9.4-12.81,20.07-16.79,31.82-.37,1.06-.69,2.11-.99,3.15,3.21,7.11,6.73,14.62,8.6,17.83,34.08,58.68,65.69,55.82,71.02,54.87h0Z"/>
  <path class="st0" d="M163.84,193.76l-8.9.04c-1.64,4.4-3.28,10.78-6.75,16.49,8.43-5.48,12.87-11.32,15.65-16.54h0Z"/>
  <path class="st0" d="M101.9,135.85c-3-3.62-7.72-8.26-10.91-14.12.52,10.07,3.36,16.84,6.47,21.86l4.44-7.74Z"/>
  <path class="st0" d="M174.06,111.15l4.48,7.7c4.61-.8,10.97-2.59,17.64-2.44-8.95-4.55-16.23-5.45-22.12-5.26Z"/>
</svg>